<?xml version="1.0" standalone="no"?>
<!DOCTYPE svg PUBLIC "-//W3C//DTD SVG 20010904//EN"
 "http://www.w3.org/TR/2001/REC-SVG-20010904/DTD/svg10.dtd">
<svg version="1.0" xmlns="http://www.w3.org/2000/svg"
 width="261.000000pt" height="261.000000pt" viewBox="0 0 261.000000 261.000000"
 preserveAspectRatio="xMidYMid meet">
<metadata>
Created by potrace 1.11, written by Peter Selinger 2001-2013
</metadata>
<g transform="translate(0.000000,261.000000) scale(0.100000,-0.100000)"
fill="#000000" stroke="none">
<path d="M370 2581 c-91 -29 -142 -61 -211 -130 -70 -70 -106 -130 -133 -220
-14 -48 -16 -154 -16 -926 0 -951 -2 -912 58 -1030 32 -64 143 -175 207 -207
118 -60 79 -58 1030 -58 946 0 913 -2 1025 55 108 55 213 182 250 303 19 62
20 95 20 936 0 952 2 913 -58 1031 -32 64 -143 175 -207 207 -118 60 -79 58
-1034 57 -811 0 -880 -1 -931 -18z m676 -522 c55 -50 54 -41 54 -678 l0 -590
326 -3 326 -3 34 -37 c27 -30 34 -46 34 -78 0 -55 -22 -94 -64 -114 -32 -15
-79 -16 -440 -14 -391 3 -405 4 -433 24 -65 48 -63 20 -63 748 0 636 1 661 20
700 27 58 62 78 128 73 38 -3 59 -10 78 -28z"/>
</g>
</svg>
